<?xml version="1.0" encoding="UTF-8" standalone="no"?>
<svg
   xmlns:dc="http://purl.org/dc/elements/1.1/"
   xmlns:cc="http://creativecommons.org/ns#"
   xmlns:rdf="http://www.w3.org/1999/02/22-rdf-syntax-ns#"
   xmlns:svg="http://www.w3.org/2000/svg"
   xmlns="http://www.w3.org/2000/svg"
   xmlns:sodipodi="http://sodipodi.sourceforge.net/DTD/sodipodi-0.dtd"
   xmlns:inkscape="http://www.inkscape.org/namespaces/inkscape"
   height="100"
   width="100"
   id="svg3015"
   version="1.1"
   inkscape:version="0.48.4 r9939"
   sodipodi:docname="ra1.svg">
  <metadata
     id="metadata3023">
    <rdf:RDF>
      <cc:Work
         rdf:about="">
        <dc:format>image/svg+xml</dc:format>
        <dc:type
           rdf:resource="http://purl.org/dc/dcmitype/StillImage" />
      </cc:Work>
    </rdf:RDF>
  </metadata>
  <defs
     id="defs3021" />
  <sodipodi:namedview
     pagecolor="#ffffff"
     bordercolor="#666666"
     borderopacity="1"
     objecttolerance="10"
     gridtolerance="10"
     guidetolerance="10"
     inkscape:pageopacity="0"
     inkscape:pageshadow="2"
     inkscape:window-width="940"
     inkscape:window-height="888"
     id="namedview3019"
     showgrid="false"
     inkscape:zoom="2.36"
     inkscape:cx="50"
     inkscape:cy="50"
     inkscape:window-x="853"
     inkscape:window-y="47"
     inkscape:window-maximized="0"
     inkscape:current-layer="svg3015" />
  <path
     d="m 51.312,6.0312 c -13.094,0 -23.718,10.6 -23.718,23.688 0,0.296 0.08,0.579 0.094,0.875 -0.296,-0.02 -0.58,-0.094 -0.876,-0.094 -7.044,0 -12.75,5.705 -12.75,12.75 0,0.087 0.032,0.194 0.032,0.281 -1.008,-0.302 -2.054,-0.531 -3.156,-0.531 -6.0435,0 -10.938,4.9 -10.938,10.938 0,6.042 4.8945,8.343 10.938,8.343 l 70.312,0 c 10.358,0 18.75,-8.391 18.75,-18.75 0,-10.359 -8.391,-18.75 -18.75,-18.75 -2.34,0 -4.568,0.47 -6.625,1.25 -1.788,-11.321 -11.495,-20 -23.313,-20 z m -27.843,62.438 -9.031,24.781 1.937,0.719 9.313,-25.5 z m 8.187,24.781 c -21.104,4.499867 -10.552,2.249933 0,0 z m 26.25,-24.781 -9.031,24.781 1.937,0.719 9.282,-25.5 z m 17.188,0 -9,24.781 1.937,0.719 9.281,-25.5 z"
     id="path3017"
     inkscape:connector-curvature="0"
     sodipodi:nodetypes="sscsscsssssscsccccccccccccccccc" />
</svg>
